<svg width="26" height="26" viewBox="0 0 26 26" fill="none" xmlns="http://www.w3.org/2000/svg">
<path d="M1.14374 0.859383C0.624206 1.18204 0.602331 2.04063 1.11639 2.37423C1.23671 2.45626 1.42264 2.47813 2.17186 2.50548C3.12889 2.53282 3.27655 2.5711 3.52264 2.83907C3.5828 2.9047 3.66483 3.06329 3.70311 3.1836C3.73593 3.30392 4.43593 6.27892 5.25624 9.80079L6.74921 16.1992L6.08749 16.8828C5.72108 17.2602 5.36014 17.6922 5.27811 17.8453C4.85702 18.6274 4.85702 19.6281 5.27811 20.4047C5.64452 21.0938 6.49764 21.6789 7.21952 21.7336L7.56405 21.7609L7.49296 22.0399C7.12655 23.4672 8.12733 24.993 9.60936 25.2555C11.5562 25.5945 13.1914 23.7406 12.5953 21.8703L12.557 21.75H14.1375H15.718L15.6469 22.0344C15.2805 23.4344 16.243 24.9438 17.6922 25.2445C19.3164 25.5836 20.875 24.3149 20.875 22.6524C20.875 22.4719 20.8422 22.193 20.7984 22.0344L20.7273 21.75H21.8266C22.8273 21.75 22.9422 21.7391 23.1062 21.6406C23.6258 21.3234 23.6476 20.4594 23.1336 20.1258C22.9914 20.0328 22.5867 20.0274 15.1875 20C7.44921 19.9727 7.39452 19.9727 7.20311 19.8578C6.82577 19.6391 6.6453 19.1305 6.82577 18.7805C6.85858 18.7149 7.1703 18.3703 7.5203 18.0149L8.16014 17.375H14.4766C21.3344 17.375 21.05 17.3859 21.6461 17.0688C22.0617 16.85 22.5266 16.3578 22.7234 15.9422C22.8984 15.5758 25.3047 6.26798 25.3047 5.96173C25.3047 5.71563 25.0805 5.34376 24.8672 5.22891C24.6922 5.13595 24.5336 5.12501 23.0844 5.12501H21.493L21.5914 5.62813C21.7883 6.63438 21.7117 7.94142 21.3891 8.96407C20.8312 10.7359 19.5133 12.2836 17.8398 13.1258C16.3031 13.8969 14.2906 14.0445 12.6445 13.5086C10.1344 12.6883 8.31327 10.5883 7.88124 8.01798C7.77733 7.37813 7.79921 6.03282 7.92499 5.46407L8.00702 5.12501H7.01718H6.02733L5.71014 3.81798C5.52968 3.07423 5.32186 2.37423 5.23436 2.17735C5.00467 1.6961 4.53436 1.23673 3.99296 0.979694L3.56639 0.777351L2.4453 0.760944C1.40077 0.744539 1.31327 0.755476 1.14374 0.859383ZM10.5281 21.9141C11.2336 22.3461 10.9328 23.4453 10.1125 23.4453C9.70233 23.4453 9.39061 23.2047 9.28124 22.7891C9.10077 22.1274 9.92655 21.5477 10.5281 21.9141ZM18.6765 21.9141C19.3875 22.3461 19.0812 23.4453 18.25 23.4453C17.7851 23.4453 17.4297 23.0899 17.4297 22.625C17.4297 22.1602 17.7851 21.8047 18.25 21.8047C18.3976 21.8047 18.5672 21.8484 18.6765 21.9141Z" fill="url(#paint0_linear_1_1037)"/>
<path d="M13.6562 1.70703C11.7039 2.14453 10.2109 3.55 9.65313 5.48594C9.54375 5.86328 9.52734 6.03828 9.52734 6.875C9.52734 7.71172 9.54375 7.88672 9.65313 8.26406C10.1781 10.0797 11.5289 11.4414 13.3336 11.9664C13.9516 12.1414 15.2039 12.1742 15.882 12.0266C17.8016 11.6 19.2891 10.1891 19.8469 8.26406C19.9563 7.88672 19.9727 7.71172 19.9727 6.875C19.9727 6.03828 19.9563 5.86328 19.8469 5.48594C19.3219 3.67031 17.9711 2.31406 16.1664 1.7836C15.6359 1.63047 14.2031 1.58672 13.6562 1.70703ZM17.2273 4.81875C17.4625 4.91719 17.6922 5.19063 17.7359 5.43125C17.8125 5.84688 17.7578 5.92344 15.9695 7.70625C14.1484 9.51641 14.1047 9.55469 13.6727 9.43438C13.3719 9.35781 11.3922 7.37813 11.3156 7.07735C11.157 6.49219 11.7477 5.90703 12.3273 6.06563C12.4805 6.10391 12.7102 6.28985 13.2078 6.78203L13.875 7.44375L15.1766 6.15313C15.8875 5.43672 16.5328 4.82969 16.6094 4.80235C16.8063 4.72578 17.025 4.73125 17.2273 4.81875Z" fill="url(#paint1_linear_1_1037)"/>
<defs>
<linearGradient id="paint0_linear_1_1037" x1="0.742249" y1="13.0272" x2="25.3047" y2="13.0272" gradientUnits="userSpaceOnUse">
<stop stop-color="#E81212"/>
<stop offset="1" stop-color="#FCCD05"/>
</linearGradient>
<linearGradient id="paint1_linear_1_1037" x1="9.52734" y1="6.87893" x2="19.9727" y2="6.87893" gradientUnits="userSpaceOnUse">
<stop stop-color="#E81212"/>
<stop offset="1" stop-color="#FCCD05"/>
</linearGradient>
</defs>
</svg>
