<svg width="26" height="18" viewBox="0 0 26 18" fill="none" xmlns="http://www.w3.org/2000/svg">
<path d="M4.64375 0.359102C4.12422 0.676291 4.10234 1.54035 4.61641 1.87395C4.75312 1.96145 4.97187 1.97238 7.23047 1.99973C9.5875 2.02707 9.69687 2.03254 9.88281 2.14192C10.468 2.48645 10.468 3.26301 9.88281 3.60754C9.69687 3.71692 9.59844 3.72238 6.35547 3.74973C3.25469 3.77707 3.00312 3.78254 2.86641 3.87551C2.36875 4.19816 2.36875 5.05129 2.86641 5.37395C3.00312 5.46692 3.30391 5.47238 7.66797 5.49973C12.2344 5.52707 12.3219 5.52707 12.5078 5.64192C13.093 5.98645 13.093 6.76301 12.5078 7.10754C12.3219 7.21691 12.2234 7.22238 8.98047 7.24973C5.87969 7.27707 5.62812 7.28254 5.49141 7.37551C4.99375 7.69816 4.99375 8.55129 5.49141 8.87395C5.62266 8.96145 5.83047 8.97238 7.66797 8.99973C9.58203 9.02707 9.70234 9.03254 9.88281 9.14191C10.468 9.48645 10.468 10.263 9.88281 10.6075C9.69687 10.7224 9.59844 10.7224 5.91797 10.7497C2.39609 10.7771 2.12813 10.7825 1.99141 10.8755C1.49375 11.1982 1.49375 12.0513 1.99141 12.3739C2.11719 12.456 2.30312 12.4779 3.29297 12.4997C4.32656 12.5216 4.46328 12.538 4.63281 12.6419C5.21797 12.981 5.21797 13.7685 4.63828 14.1075C4.49062 14.195 4.31016 14.2224 3.73047 14.2443C2.9375 14.2825 2.80078 14.3318 2.60938 14.6489C2.46172 14.8896 2.46172 15.3654 2.60938 15.606C2.66953 15.7044 2.79531 15.8302 2.89375 15.8904C3.06328 15.9888 3.17266 15.9997 4.44141 15.9997H5.80859L5.98906 16.4044C6.21328 16.8966 6.65625 17.3505 7.13203 17.5693C7.58047 17.7771 8.29688 17.8099 8.83281 17.6458C9.52734 17.438 10.1398 16.9239 10.4625 16.2896L10.6047 15.9997H13.8969H17.1836L17.3641 16.4044C17.5883 16.8966 18.0312 17.3505 18.507 17.5693C18.9555 17.7771 19.6719 17.8099 20.2078 17.6458C20.9023 17.438 21.5148 16.9239 21.8375 16.2896L21.9797 15.9997H22.9805C23.9211 15.9997 23.9867 15.9943 24.1562 15.8794C24.5555 15.606 24.5281 15.7372 24.9055 12.3794C25.0914 10.6841 25.2445 9.17473 25.25 9.0216C25.25 8.77551 25.1297 8.47473 24.2602 6.50598C23.7188 5.27551 23.2266 4.1927 23.1664 4.09973C22.9531 3.74973 22.9477 3.74973 20.2516 3.74973C17.8781 3.74973 17.8125 3.74973 17.8125 3.64582C17.8125 3.58567 17.8727 2.9841 17.9492 2.30598C18.0586 1.35988 18.0805 1.02629 18.0367 0.862228C17.9766 0.654415 17.7797 0.424728 17.5555 0.309885C17.468 0.266134 15.6852 0.249727 11.1297 0.249727C4.93359 0.249727 4.81875 0.249727 4.64375 0.359102ZM21.9359 5.75676C21.9852 5.86613 22.3516 6.67004 22.7453 7.53957L23.4562 9.12551L23.418 9.50285L23.3797 9.87473H21.482C20.443 9.87473 19.4914 9.84738 19.3766 9.82004C19.0922 9.75441 18.9117 9.6177 18.775 9.3552L18.6656 9.14191L18.8352 7.61613C19.0211 5.9591 19.0266 5.93176 19.3984 5.67473C19.5734 5.55988 19.6281 5.55442 20.7109 5.55442H21.8375L21.9359 5.75676ZM8.74531 14.3646C8.87109 14.4357 9.00781 14.731 9.00781 14.9497C9.00781 15.2122 8.76172 15.6279 8.50469 15.7974C8.08906 16.0654 7.73906 15.9614 7.58047 15.5185C7.45469 15.1521 7.78281 14.5286 8.1875 14.3646C8.37344 14.2935 8.60859 14.2935 8.74531 14.3646ZM20.1203 14.3646C20.2461 14.4357 20.3828 14.731 20.3828 14.9497C20.3828 15.2122 20.1367 15.6279 19.8797 15.7974C19.4641 16.0654 19.1141 15.9614 18.9555 15.5185C18.8297 15.1521 19.1578 14.5286 19.5625 14.3646C19.7484 14.2935 19.9836 14.2935 20.1203 14.3646Z" fill="url(#paint0_linear_1_1047)"/>
<path d="M1.14375 7.35938C0.88125 7.52344 0.75 7.76953 0.75 8.125C0.75 8.48047 0.88125 8.72656 1.14375 8.89062C1.30234 8.98359 1.42266 9 2.0625 9C2.88828 9 3.05781 8.94531 3.26563 8.60625C3.41328 8.36016 3.41328 7.88984 3.26563 7.64375C3.05781 7.30469 2.88828 7.25 2.0625 7.25C1.42266 7.25 1.30234 7.26641 1.14375 7.35938Z" fill="url(#paint1_linear_1_1047)"/>
<defs>
<linearGradient id="paint0_linear_1_1047" x1="1.61816" y1="8.99986" x2="25.25" y2="8.99986" gradientUnits="userSpaceOnUse">
<stop stop-color="#E81212"/>
<stop offset="1" stop-color="#FCCD05"/>
</linearGradient>
<linearGradient id="paint1_linear_1_1047" x1="0.75" y1="8.125" x2="3.37637" y2="8.125" gradientUnits="userSpaceOnUse">
<stop stop-color="#E81212"/>
<stop offset="1" stop-color="#FCCD05"/>
</linearGradient>
</defs>
</svg>
