<svg width="26" height="26" viewBox="0 0 26 26" fill="none" xmlns="http://www.w3.org/2000/svg">
<path d="M1.14375 0.859365C0.88125 1.02343 0.75 1.26952 0.75 1.62499C0.75 1.98046 0.88125 2.22655 1.14375 2.39062C1.31328 2.49452 1.42266 2.49999 2.86641 2.49999C3.725 2.49999 4.52344 2.52734 4.67656 2.55468C4.97187 2.6203 5.2125 2.81171 5.31641 3.06874C5.35469 3.16171 6.20234 6.33358 7.20859 10.118C8.69609 15.7289 9.05156 16.9922 9.11719 16.9703C9.16094 16.9594 9.38516 16.8773 9.60938 16.7953C9.83359 16.7187 10.1945 16.6203 10.4023 16.582C10.6156 16.5437 10.7797 16.4945 10.7797 16.4672C10.7742 16.4398 9.92656 13.2789 8.89844 9.4453C7.62422 4.69296 6.97344 2.36874 6.86406 2.15546C6.56328 1.5539 6.01641 1.08905 5.35469 0.864836C5.04297 0.755461 4.88984 0.74999 3.17266 0.74999C1.42266 0.74999 1.31328 0.755461 1.14375 0.859365Z" fill="url(#paint0_linear_1_1057)"/>
<path d="M19.2674 4.16757C18.7916 4.29883 18.3924 4.41914 18.3815 4.43008C18.3705 4.44101 18.6658 5.59492 19.0432 7.00039C19.4205 8.40039 19.7268 9.63632 19.7268 9.7457C19.7268 10.0957 19.4862 10.4129 19.1307 10.5332C18.9721 10.5879 18.808 10.566 18.0752 10.4238L17.2057 10.2488L17.058 10.3855C16.4729 10.9215 15.9315 11.3699 15.8112 11.4137C15.7346 11.4465 15.5651 11.4684 15.4283 11.4684C15.2205 11.4684 15.1494 11.4355 14.969 11.2605L14.7502 11.0582L14.0612 8.46054C13.6783 7.0332 13.3502 5.84101 13.3283 5.81914C13.2846 5.76992 11.4744 6.24023 11.2283 6.36601C10.933 6.51914 10.6104 6.86914 10.4572 7.2082C10.1838 7.8207 10.1729 7.77148 11.4088 12.398C12.0158 14.6676 12.5244 16.5707 12.5408 16.6199C12.5572 16.6746 12.6666 16.7402 12.7979 16.7785C13.3612 16.9262 14.0721 17.3254 14.6408 17.8121L14.9416 18.0691L19.0979 16.959C21.3838 16.3465 23.3635 15.8051 23.4948 15.7559C23.6315 15.7012 23.8502 15.5645 23.9815 15.4441C24.4791 14.9793 24.6705 14.3777 24.5229 13.727C24.3424 12.934 22.2369 5.14101 22.144 4.9332C22.0018 4.59961 21.6518 4.24961 21.2854 4.08008C20.7932 3.84492 20.3721 3.86133 19.2674 4.16757Z" fill="url(#paint1_linear_1_1057)"/>
<path d="M15.8438 5.08716C15.3789 5.20747 14.9906 5.31138 14.9797 5.31685C14.9633 5.32779 15.9531 9.02466 15.9859 9.05747C15.9969 9.06841 16.1227 8.98091 16.2649 8.8606C16.407 8.74028 16.582 8.6145 16.6477 8.57622C16.7899 8.50513 17.1563 8.49966 17.457 8.57075C17.5774 8.5981 17.6813 8.60903 17.6977 8.5981C17.7195 8.57075 16.7844 5.027 16.7242 4.92857C16.7024 4.88482 16.4234 4.9395 15.8438 5.08716Z" fill="url(#paint2_linear_1_1057)"/>
<path d="M20.1367 18.4414C17.8836 19.0484 16.0406 19.5734 16.0461 19.5953C16.0516 19.6227 16.1227 19.825 16.1992 20.0383C16.2758 20.257 16.3687 20.6234 16.407 20.8477C16.4508 21.1484 16.4945 21.2578 16.5547 21.2578C16.7516 21.2578 24.8016 19.1086 24.9219 19.0211C24.9984 18.9664 25.1187 18.8406 25.1844 18.7367C25.3594 18.4852 25.3375 17.982 25.1461 17.7086C24.9984 17.5008 24.643 17.3203 24.4023 17.3258C24.3148 17.3312 22.3953 17.8289 20.1367 18.4414Z" fill="url(#paint3_linear_1_1057)"/>
<path d="M10.3588 18.332C9.18306 18.6273 8.144 19.6664 7.83775 20.8531C7.72837 21.2797 7.7229 22.1547 7.83228 22.6195C8.11665 23.8172 9.18306 24.8836 10.3807 25.168C10.8292 25.2719 11.6713 25.2719 12.1198 25.168C13.3174 24.8836 14.3838 23.8172 14.6682 22.6195C14.7776 22.1547 14.7721 21.2797 14.6627 20.8531C14.4549 20.0602 13.9026 19.2781 13.2135 18.8187C12.601 18.4141 12.1745 18.2828 11.3596 18.2664C10.8948 18.2609 10.5721 18.2773 10.3588 18.332ZM11.6768 21.0391C12.3877 21.4711 12.0815 22.5703 11.2502 22.5703C10.7854 22.5703 10.4299 22.2148 10.4299 21.75C10.4299 21.2852 10.7854 20.9297 11.2502 20.9297C11.3979 20.9297 11.5674 20.9734 11.6768 21.0391Z" fill="url(#paint4_linear_1_1057)"/>
<defs>
<linearGradient id="paint0_linear_1_1057" x1="0.75" y1="8.86028" x2="10.7797" y2="8.86028" gradientUnits="userSpaceOnUse">
<stop stop-color="#E81212"/>
<stop offset="1" stop-color="#FCCD05"/>
</linearGradient>
<linearGradient id="paint1_linear_1_1057" x1="10.3076" y1="10.994" x2="24.5714" y2="10.994" gradientUnits="userSpaceOnUse">
<stop stop-color="#E81212"/>
<stop offset="1" stop-color="#FCCD05"/>
</linearGradient>
<linearGradient id="paint2_linear_1_1057" x1="14.9795" y1="6.98616" x2="17.698" y2="6.98616" gradientUnits="userSpaceOnUse">
<stop stop-color="#E81212"/>
<stop offset="1" stop-color="#FCCD05"/>
</linearGradient>
<linearGradient id="paint3_linear_1_1057" x1="16.0461" y1="19.2917" x2="25.3036" y2="19.2917" gradientUnits="userSpaceOnUse">
<stop stop-color="#E81212"/>
<stop offset="1" stop-color="#FCCD05"/>
</linearGradient>
<linearGradient id="paint4_linear_1_1057" x1="7.75293" y1="21.7557" x2="14.7476" y2="21.7557" gradientUnits="userSpaceOnUse">
<stop stop-color="#E81212"/>
<stop offset="1" stop-color="#FCCD05"/>
</linearGradient>
</defs>
</svg>
