<svg width="26" height="26" viewBox="0 0 26 26" fill="none" xmlns="http://www.w3.org/2000/svg">
<path d="M11.4305 0.832031C11.2445 0.875781 10.9109 1.00156 10.6922 1.11094C10.3422 1.29141 10.1016 1.50469 8.81641 2.78438L7.33984 4.25H12.125H16.9102L15.4336 2.78438C14.1484 1.50469 13.9078 1.29141 13.5633 1.11094C12.8961 0.771875 12.1633 0.673438 11.4305 0.832031Z" fill="url(#paint0_linear_1_1070)"/>
<path d="M2.54375 6.10391C1.75078 6.36094 1.07266 7.05547 0.8375 7.85391C0.760937 8.12188 0.75 8.96406 0.75 15.6305C0.75 22.8164 0.755469 23.1227 0.853906 23.4398C1.10547 24.2437 1.79453 24.9273 2.60391 25.1625C2.87188 25.2391 3.86719 25.25 12.1305 25.25C21.0336 25.25 21.3672 25.2445 21.6898 25.1461C22.4937 24.8945 23.1773 24.2055 23.4125 23.3961C23.4836 23.15 23.5 22.7617 23.5 21.1156V19.1359L21.0555 19.1141C18.3813 19.0867 18.3484 19.0813 17.6375 18.7477C16.8828 18.3922 16.2102 17.6594 15.882 16.8555C15.7125 16.4344 15.707 16.3906 15.707 15.625C15.707 14.8867 15.718 14.8047 15.8602 14.4492C16.3742 13.1641 17.4352 12.3328 18.7805 12.1797C19.0484 12.1523 20.2133 12.125 21.3836 12.125H23.5V10.1398C23.5 8.48828 23.4836 8.1 23.4125 7.85391C23.1773 7.04453 22.4937 6.35547 21.6898 6.10391C21.3672 6.00547 21.0391 6 12.1086 6.00547C3.2875 6.00547 2.83906 6.01094 2.54375 6.10391Z" fill="url(#paint1_linear_1_1070)"/>
<path d="M18.3156 14.0395C17.6703 14.3622 17.3531 14.8817 17.3477 15.5981C17.3477 15.959 17.375 16.0903 17.4953 16.3473C17.6648 16.7083 17.993 17.0473 18.3484 17.2223L18.6055 17.3481L21.6406 17.3645C24.5938 17.3755 24.6813 17.3755 24.8562 17.2661C25.2227 17.0419 25.25 16.938 25.25 15.6255C25.25 14.313 25.2227 14.209 24.8562 13.9848C24.6813 13.8809 24.5719 13.8755 21.6625 13.8755H18.6492L18.3156 14.0395Z" fill="url(#paint2_linear_1_1070)"/>
<defs>
<linearGradient id="paint0_linear_1_1070" x1="7.33984" y1="2.50407" x2="16.9102" y2="2.50407" gradientUnits="userSpaceOnUse">
<stop stop-color="#E81212"/>
<stop offset="1" stop-color="#FCCD05"/>
</linearGradient>
<linearGradient id="paint1_linear_1_1070" x1="0.75" y1="15.627" x2="23.5" y2="15.627" gradientUnits="userSpaceOnUse">
<stop stop-color="#E81212"/>
<stop offset="1" stop-color="#FCCD05"/>
</linearGradient>
<linearGradient id="paint2_linear_1_1070" x1="17.3477" y1="15.6223" x2="25.25" y2="15.6223" gradientUnits="userSpaceOnUse">
<stop stop-color="#E81212"/>
<stop offset="1" stop-color="#FCCD05"/>
</linearGradient>
</defs>
</svg>
