<svg width="26" height="26" viewBox="0 0 26 26" fill="none" xmlns="http://www.w3.org/2000/svg">
<path d="M11.4693 0.810583C8.7295 1.16058 6.21934 2.39105 4.27794 4.33246C1.17715 7.43324 -0.0150334 11.9067 1.117 16.1996C1.72403 18.5184 3.10762 20.7223 4.93419 22.2864C6.79903 23.8832 9.08497 24.895 11.524 25.1957C12.3115 25.2887 13.9139 25.2668 14.7506 25.141C16.0467 24.9496 16.2709 24.8567 16.4951 24.4137C16.6537 24.0965 16.6209 23.752 16.4076 23.5004C16.1068 23.1395 15.8662 23.1012 15.0459 23.2598C12.6998 23.7192 10.4357 23.4239 8.32481 22.3848C5.35528 20.9192 3.33731 18.3051 2.62637 14.9856C2.48419 14.3293 2.47325 14.2036 2.47872 12.9457C2.47872 11.7043 2.48965 11.5567 2.6209 10.9223C3.0584 8.87152 3.97715 7.12152 5.36622 5.68324C7.92012 3.03637 11.535 1.92074 15.1279 2.66449C18.7209 3.41371 21.7451 6.1098 22.9209 9.62621C23.2764 10.6817 23.3967 11.4145 23.4295 12.645C23.4623 13.8536 23.3912 14.5262 23.1397 15.5434C22.8607 16.6371 22.3248 17.8457 21.6904 18.7918L21.3951 19.2293L20.9576 18.8028C20.4381 18.2887 20.367 18.2504 19.9897 18.2504C19.6451 18.2504 19.3936 18.3817 19.235 18.6442C19.1311 18.8137 19.1256 18.9231 19.1256 20.4379C19.1256 21.9528 19.1311 22.0621 19.235 22.2317C19.2951 22.3301 19.4209 22.4559 19.5193 22.5161C19.6889 22.62 19.7982 22.6254 21.3131 22.6254C22.8279 22.6254 22.9373 22.62 23.1068 22.5161C23.3693 22.3575 23.5006 22.1059 23.5006 21.7614C23.5006 21.395 23.424 21.2528 23.0193 20.8535L22.6912 20.5364L23.1397 19.8692C24.1787 18.3106 24.835 16.6262 25.1193 14.7504C25.2397 13.9793 25.2561 12.1692 25.1522 11.4418C24.3592 5.87465 20.2139 1.66371 14.7232 0.854334C13.9631 0.744959 12.1803 0.717615 11.4693 0.810583Z" fill="url(#paint0_linear_1_1081)"/>
<path d="M7.925 6.98984C7.53672 7.14297 7.1375 7.54219 6.98984 7.94141C6.875 8.24219 6.875 8.31328 6.875 13C6.875 17.6867 6.875 17.7578 6.98984 18.0586C7.14297 18.4633 7.53672 18.857 7.94141 19.0102C8.24219 19.125 8.31328 19.125 13 19.125C17.6867 19.125 17.7578 19.125 18.0586 19.0102C18.4633 18.857 18.857 18.4633 19.0102 18.0586C19.125 17.7578 19.125 17.6867 19.125 13C19.125 8.31328 19.125 8.24219 19.0102 7.94141C18.857 7.53672 18.4633 7.14297 18.0586 6.98984C17.7906 6.88594 17.632 6.875 16.6914 6.875H15.6305L15.6141 9.59297C15.5977 12.2289 15.5922 12.3219 15.4828 12.5078C15.3242 12.7812 15.0562 12.9453 14.7664 12.9453C14.5805 12.9453 14.3617 12.8633 13.7656 12.5625L13 12.1797L12.2344 12.5625C11.6383 12.8633 11.4195 12.9453 11.2336 12.9453C10.9437 12.9453 10.6758 12.7812 10.5172 12.5078C10.4078 12.3219 10.4023 12.2289 10.3859 9.59297L10.3695 6.875L9.29219 6.88047C8.34609 6.88047 8.18203 6.89141 7.925 6.98984Z" fill="url(#paint1_linear_1_1081)"/>
<path d="M12.125 8.81641V10.7578L12.4531 10.5938C12.6555 10.4898 12.8633 10.4297 13 10.4297C13.1367 10.4297 13.3445 10.4898 13.5469 10.5938L13.875 10.7578V8.81641V6.875H13H12.125V8.81641Z" fill="url(#paint2_linear_1_1081)"/>
<defs>
<linearGradient id="paint0_linear_1_1081" x1="0.697266" y1="13.0036" x2="25.2208" y2="13.0036" gradientUnits="userSpaceOnUse">
<stop stop-color="#E81212"/>
<stop offset="1" stop-color="#FCCD05"/>
</linearGradient>
<linearGradient id="paint1_linear_1_1081" x1="6.875" y1="13" x2="19.125" y2="13" gradientUnits="userSpaceOnUse">
<stop stop-color="#E81212"/>
<stop offset="1" stop-color="#FCCD05"/>
</linearGradient>
<linearGradient id="paint2_linear_1_1081" x1="12.125" y1="8.81641" x2="13.875" y2="8.81641" gradientUnits="userSpaceOnUse">
<stop stop-color="#E81212"/>
<stop offset="1" stop-color="#FCCD05"/>
</linearGradient>
</defs>
</svg>
